<svg fill="none" viewBox="0 0 24 24" xmlns="http://www.w3.org/2000/svg" x="0" y="0">
        <g id="Misc icon" xmlns="http://www.w3.org/2000/svg">
          <rect height="23" width="23" fill="#E7F6EC" rx="7.5" x="0.5" y="0.5" />
          <rect height="23" width="23" rx="7.5" stroke="#B5E3C4" x="0.5" y="0.5" />
          <g id="icon / check-circle">
            <path
              id="icon"
              d="M12,16.5c2.4853,0 4.5,-2.0147 4.5,-4.5c0,-2.4853 -2.0147,-4.5 -4.5,-4.5c-2.4853,0 -4.5,2.0147 -4.5,4.5c0,2.4853 2.0147,4.5 4.5,4.5zM13.8377,11.3687c0.2036,-0.1865 0.2175,-0.5028 0.031,-0.7064c-0.1865,-0.2036 -0.5028,-0.2175 -0.7064,-0.031l-1.846,1.6907l-0.4786,-0.4383c-0.2036,-0.1865 -0.5199,-0.1726 -0.7064,0.031c-0.1865,0.2037 -0.1726,0.5199 0.031,0.7064l0.8163,0.7476c0.1911,0.1751 0.4842,0.1751 0.6754,0z"
              fill="#04802E"
              fillRule="evenodd"
            />
          </g>
        </g>
      </svg>